# xmcd
# 
# Track frame offsets:
#     150
#     14409
#     29161
#     48697
#     68249
#     84889
#     107903
#     131069
#     145968
#     162553
#     186054
#     214793
#     229543
#     239971
#     264233
# 
# Disc length: 3847
# 
# Revision: 3
# Processed by: cddbd v1.5.2PL0 Copyright (c) Steve Scherf et al.
# Submitted via: fre:ac v1.0.31
# 
DISCID=e00f050f
DTITLE=Kristin Chenoweth - Coming Home
DYEAR=2014
DGENRE=Vocal
TTITLE0=I Could Have Danced All Night
TTITLE1=Maybe This Time
TTITLE2=My Coloring Book
TTITLE3=Bring Him Home
TTITLE4=Fathers and Daughters
TTITLE5=Hard Times Come Again No More
TTITLE6=Upon This Rock
TTITLE7=Over The Rainbow
TTITLE8=Popular
TTITLE9=For Good
TTITLE10=Little Sparrow
TTITLE11=Wishing You Were Somewhere Here Again
TTITLE12=All The Things You Are
TTITLE13=No More Tears (Enough Is Enough)
TTITLE14=I Was Here
EXTD=
EXTT0=
EXTT1=
EXTT2=
EXTT3=
EXTT4=
EXTT5=
EXTT6=
EXTT7=
EXTT8=
EXTT9=
EXTT10=
EXTT11=
EXTT12=
EXTT13=
EXTT14=
PLAYORDER=
